<svg width="253" height="58" viewBox="0 0 253 58" fill="none" xmlns="http://www.w3.org/2000/svg">
<g clip-path="url(#clip0_11_33)">
<rect x="21" y="4" width="33" height="33" rx="2" fill="url(#paint0_linear_11_33)"/>
<mask id="mask0_11_33" style="mask-type:alpha" maskUnits="userSpaceOnUse" x="4" y="4" width="50" height="50">
<rect width="50" height="50" rx="2" transform="matrix(-1 0 0 1 54 4)" fill="#0582FF"/>
</mask>
<g mask="url(#mask0_11_33)">
<path d="M29.0001 48C29.0001 61.8071 40.1929 73 54.0001 73C67.8072 73 79.0001 61.8071 79.0001 48C79.0001 34.1929 67.8072 23 54.0001 23C40.1929 23 29.0001 34.1929 29.0001 48Z" fill="white"/>
<path d="M-9.54404 45.8407C-9.54404 59.6478 1.64884 70.8407 15.456 70.8407C29.2631 70.8407 40.456 59.6478 40.456 45.8407C40.456 32.0335 29.2631 20.8407 15.456 20.8407C1.64884 20.8407 -9.54404 32.0335 -9.54404 45.8407Z" fill="white"/>
<path d="M-20.9999 8.00003C-20.9999 21.8071 -9.80706 33 4.00006 33C17.8072 33 29.0001 21.8071 29.0001 8.00003C29.0001 -5.80709 17.8072 -17 4.00006 -17C-9.80706 -17 -20.9999 -5.80709 -20.9999 8.00003Z" fill="white"/>
</g>
<path d="M85.4286 16.5455V42H81.3271L69.3331 24.6616H69.1218V42H64.5107V16.5455H68.6371L80.6186 33.8963H80.8423V16.5455H85.4286ZM102.422 33.9709V22.9091H106.921V42H102.559V38.6069H102.36C101.929 39.6758 101.221 40.55 100.235 41.2294C99.2569 41.9089 98.0513 42.2486 96.6178 42.2486C95.3666 42.2486 94.2604 41.971 93.2993 41.4158C92.3464 40.8524 91.6006 40.0362 91.0621 38.9673C90.5235 37.8902 90.2542 36.5893 90.2542 35.0646V22.9091H94.7535V34.3686C94.7535 35.5784 95.0849 36.5395 95.7478 37.2521C96.4107 37.9647 97.2807 38.321 98.3579 38.321C99.0207 38.321 99.6629 38.1594 100.284 37.8363C100.906 37.5131 101.415 37.0326 101.813 36.3945C102.219 35.7482 102.422 34.9403 102.422 33.9709ZM120 42.3729C118.086 42.3729 116.433 41.9751 115.041 41.1797C113.657 40.3759 112.592 39.2408 111.846 37.7741C111.101 36.2992 110.728 34.5633 110.728 32.5664C110.728 30.6026 111.101 28.8791 111.846 27.396C112.6 25.9045 113.653 24.7444 115.003 23.9158C116.354 23.079 117.941 22.6605 119.764 22.6605C120.94 22.6605 122.051 22.8511 123.095 23.2322C124.147 23.6051 125.075 24.1851 125.879 24.9723C126.691 25.7595 127.329 26.7621 127.793 27.9801C128.257 29.1899 128.489 30.6316 128.489 32.3054V33.685H112.841V30.6523H124.176C124.168 29.7906 123.981 29.0241 123.617 28.353C123.252 27.6735 122.742 27.1391 122.088 26.7496C121.442 26.3602 120.688 26.1655 119.826 26.1655C118.906 26.1655 118.098 26.3892 117.402 26.8366C116.706 27.2758 116.163 27.8558 115.774 28.5767C115.393 29.2893 115.198 30.0723 115.19 30.9258V33.5732C115.19 34.6835 115.393 35.6364 115.799 36.4318C116.205 37.219 116.772 37.8239 117.502 38.2464C118.231 38.6607 119.084 38.8679 120.062 38.8679C120.717 38.8679 121.309 38.7768 121.839 38.5945C122.37 38.4039 122.829 38.1263 123.219 37.7617C123.608 37.3971 123.903 36.9455 124.101 36.407L128.302 36.8793C128.037 37.9896 127.532 38.959 126.786 39.7876C126.049 40.608 125.104 41.246 123.952 41.7017C122.8 42.1491 121.483 42.3729 120 42.3729ZM132.494 42V16.5455H142.238C144.078 16.5455 145.607 16.8355 146.825 17.4155C148.051 17.9872 148.967 18.7702 149.571 19.7646C150.185 20.7589 150.491 21.8858 150.491 23.1452C150.491 24.181 150.292 25.0676 149.895 25.805C149.497 26.5342 148.962 27.1267 148.291 27.5824C147.62 28.0381 146.87 28.3654 146.042 28.5643V28.8129C146.945 28.8626 147.811 29.1402 148.639 29.6456C149.476 30.1428 150.16 30.8471 150.69 31.7585C151.22 32.67 151.486 33.772 151.486 35.0646C151.486 36.3821 151.167 37.567 150.528 38.6193C149.89 39.6634 148.929 40.4878 147.645 41.0927C146.361 41.6976 144.745 42 142.798 42H132.494ZM137.105 38.147H142.064C143.738 38.147 144.944 37.828 145.681 37.19C146.427 36.5437 146.8 35.7151 146.8 34.7042C146.8 33.9502 146.613 33.2707 146.241 32.6658C145.868 32.0527 145.337 31.5721 144.65 31.2241C143.962 30.8678 143.142 30.6896 142.189 30.6896H137.105V38.147ZM137.105 27.3711H141.667C142.462 27.3711 143.179 27.2261 143.817 26.9361C144.455 26.6378 144.956 26.2193 145.321 25.6808C145.694 25.1339 145.88 24.4876 145.88 23.7418C145.88 22.7558 145.532 21.9438 144.836 21.3058C144.148 20.6677 143.125 20.3487 141.766 20.3487H137.105V27.3711ZM163.626 42.3729C161.761 42.3729 160.145 41.9627 158.778 41.1424C157.411 40.3221 156.35 39.1745 155.596 37.6996C154.851 36.2247 154.478 34.5012 154.478 32.5291C154.478 30.5571 154.851 28.8294 155.596 27.3462C156.35 25.863 157.411 24.7113 158.778 23.891C160.145 23.0707 161.761 22.6605 163.626 22.6605C165.49 22.6605 167.106 23.0707 168.473 23.891C169.84 24.7113 170.896 25.863 171.642 27.3462C172.396 28.8294 172.773 30.5571 172.773 32.5291C172.773 34.5012 172.396 36.2247 171.642 37.6996C170.896 39.1745 169.84 40.3221 168.473 41.1424C167.106 41.9627 165.49 42.3729 163.626 42.3729ZM163.65 38.7685C164.661 38.7685 165.506 38.4909 166.186 37.9357C166.865 37.3723 167.371 36.6183 167.702 35.6737C168.042 34.729 168.212 33.6767 168.212 32.5167C168.212 31.3484 168.042 30.2919 167.702 29.3473C167.371 28.3944 166.865 27.6362 166.186 27.0728C165.506 26.5094 164.661 26.2276 163.65 26.2276C162.615 26.2276 161.753 26.5094 161.065 27.0728C160.386 27.6362 159.876 28.3944 159.536 29.3473C159.205 30.2919 159.039 31.3484 159.039 32.5167C159.039 33.6767 159.205 34.729 159.536 35.6737C159.876 36.6183 160.386 37.3723 161.065 37.9357C161.753 38.4909 162.615 38.7685 163.65 38.7685ZM176.592 42V22.9091H180.955V26.0909H181.153C181.502 24.9889 182.098 24.1396 182.943 23.543C183.797 22.9381 184.77 22.6357 185.864 22.6357C186.113 22.6357 186.39 22.6481 186.697 22.6729C187.012 22.6895 187.273 22.7185 187.48 22.7599V26.8988C187.289 26.8325 186.987 26.7745 186.573 26.7248C186.167 26.6668 185.773 26.6378 185.392 26.6378C184.571 26.6378 183.834 26.8159 183.179 27.1722C182.533 27.5202 182.024 28.005 181.651 28.6264C181.278 29.2479 181.091 29.9646 181.091 30.7766V42H176.592ZM196.767 42.3356C195.268 42.3356 193.925 41.9503 192.74 41.1797C191.556 40.4091 190.619 39.2905 189.931 37.8239C189.244 36.3572 188.9 34.5758 188.9 32.4794C188.9 30.3582 189.248 28.5684 189.944 27.1101C190.648 25.6435 191.597 24.5373 192.79 23.7915C193.983 23.0375 195.313 22.6605 196.78 22.6605C197.898 22.6605 198.818 22.8511 199.539 23.2322C200.26 23.6051 200.832 24.0567 201.254 24.587C201.677 25.109 202.004 25.602 202.236 26.0661H202.423V16.5455H206.934V42H202.51V38.9922H202.236C202.004 39.4562 201.669 39.9492 201.229 40.4712C200.79 40.985 200.21 41.4241 199.489 41.7887C198.768 42.1533 197.861 42.3356 196.767 42.3356ZM198.023 38.6442C198.976 38.6442 199.788 38.3873 200.459 37.8736C201.13 37.3516 201.64 36.6265 201.988 35.6985C202.336 34.7705 202.51 33.6892 202.51 32.4545C202.51 31.2199 202.336 30.1469 201.988 29.2354C201.648 28.324 201.142 27.6155 200.471 27.1101C199.808 26.6046 198.992 26.3519 198.023 26.3519C197.02 26.3519 196.183 26.6129 195.512 27.1349C194.841 27.657 194.335 28.3778 193.996 29.2976C193.656 30.2173 193.486 31.2696 193.486 32.4545C193.486 33.6477 193.656 34.7125 193.996 35.6488C194.344 36.5768 194.853 37.3101 195.525 37.8487C196.204 38.379 197.037 38.6442 198.023 38.6442ZM220.18 42.3729C218.266 42.3729 216.613 41.9751 215.221 41.1797C213.838 40.3759 212.773 39.2408 212.027 37.7741C211.281 36.2992 210.908 34.5633 210.908 32.5664C210.908 30.6026 211.281 28.8791 212.027 27.396C212.781 25.9045 213.833 24.7444 215.184 23.9158C216.535 23.079 218.121 22.6605 219.944 22.6605C221.121 22.6605 222.231 22.8511 223.275 23.2322C224.328 23.6051 225.256 24.1851 226.059 24.9723C226.871 25.7595 227.509 26.7621 227.973 27.9801C228.437 29.1899 228.669 30.6316 228.669 32.3054V33.685H213.021V30.6523H224.357C224.348 29.7906 224.162 29.0241 223.797 28.353C223.433 27.6735 222.923 27.1391 222.269 26.7496C221.622 26.3602 220.868 26.1655 220.006 26.1655C219.087 26.1655 218.279 26.3892 217.583 26.8366C216.887 27.2758 216.344 27.8558 215.955 28.5767C215.573 29.2893 215.379 30.0723 215.37 30.9258V33.5732C215.37 34.6835 215.573 35.6364 215.979 36.4318C216.386 37.219 216.953 37.8239 217.682 38.2464C218.411 38.6607 219.265 38.8679 220.243 38.8679C220.897 38.8679 221.49 38.7768 222.02 38.5945C222.55 38.4039 223.01 38.1263 223.4 37.7617C223.789 37.3971 224.083 36.9455 224.282 36.407L228.483 36.8793C228.218 37.9896 227.712 38.959 226.967 39.7876C226.229 40.608 225.285 41.246 224.133 41.7017C222.981 42.1491 221.664 42.3729 220.18 42.3729ZM232.476 42V22.9091H236.838V26.0909H237.037C237.385 24.9889 237.982 24.1396 238.827 23.543C239.681 22.9381 240.654 22.6357 241.748 22.6357C241.996 22.6357 242.274 22.6481 242.581 22.6729C242.895 22.6895 243.156 22.7185 243.364 22.7599V26.8988C243.173 26.8325 242.871 26.7745 242.456 26.7248C242.05 26.6668 241.657 26.6378 241.276 26.6378C240.455 26.6378 239.718 26.8159 239.063 27.1722C238.417 27.5202 237.907 28.005 237.534 28.6264C237.162 29.2479 236.975 29.9646 236.975 30.7766V42H232.476Z" fill="white"/>
</g>
<defs>
<linearGradient id="paint0_linear_11_33" x1="53" y1="4.5" x2="14" y2="44" gradientUnits="userSpaceOnUse">
<stop stop-color="#0582FF"/>
<stop offset="0.273911" stop-color="#4491DF"/>
<stop offset="0.9" stop-color="#0582FF" stop-opacity="0.5"/>
<stop offset="1" stop-color="#0582FF" stop-opacity="0"/>
</linearGradient>
<clipPath id="clip0_11_33">
<rect width="253" height="58" fill="white"/>
</clipPath>
</defs>
</svg>
