<svg width="2285" height="500" viewBox="0 0 2285 500" fill="none" xmlns="http://www.w3.org/2000/svg">
<g clip-path="url(#clip0_62_14)">
<circle cx="250" cy="250" r="75" fill="black" fill-opacity="0.75"/>
<circle cx="250" cy="250" r="73" stroke="black" stroke-opacity="0.85" stroke-width="4"/>
<circle cx="100" cy="250" r="50" fill="black" fill-opacity="0.75"/>
<circle cx="100" cy="250" r="48" stroke="black" stroke-opacity="0.85" stroke-width="4"/>
<circle cx="400" cy="250" r="50" fill="black" fill-opacity="0.75"/>
<circle cx="400" cy="250" r="48" stroke="black" stroke-opacity="0.85" stroke-width="4"/>
<circle cx="362.5" cy="137.5" r="37.5" fill="black" fill-opacity="0.75"/>
<circle cx="362.5" cy="137.5" r="35.5" stroke="black" stroke-opacity="0.85" stroke-width="4"/>
<circle cx="137.5" cy="137.5" r="37.5" fill="black" fill-opacity="0.75"/>
<circle cx="137.5" cy="137.5" r="35.5" stroke="black" stroke-opacity="0.85" stroke-width="4"/>
<circle cx="137.5" cy="362.5" r="37.5" fill="black" fill-opacity="0.75"/>
<circle cx="137.5" cy="362.5" r="35.5" stroke="black" stroke-opacity="0.85" stroke-width="4"/>
<circle cx="362.5" cy="362.5" r="37.5" fill="black" fill-opacity="0.75"/>
<circle cx="362.5" cy="362.5" r="35.5" stroke="black" stroke-opacity="0.85" stroke-width="4"/>
<circle cx="250" cy="400" r="50" fill="black" fill-opacity="0.75"/>
<circle cx="250" cy="400" r="48" stroke="black" stroke-opacity="0.85" stroke-width="4"/>
<circle cx="250" cy="100" r="50" fill="black" fill-opacity="0.75"/>
<circle cx="250" cy="100" r="48" stroke="black" stroke-opacity="0.85" stroke-width="4"/>
<path d="M801.456 136.818V355H761.612L666.69 217.678H665.092V355H618.963V136.818H659.446L753.622 274.034H755.54V136.818H801.456ZM943.652 285.327V191.364H989.036V355H945.463V325.277H943.759C940.066 334.865 933.922 342.571 925.328 348.395C916.806 354.219 906.401 357.131 894.114 357.131C883.176 357.131 873.553 354.645 865.243 349.673C856.934 344.702 850.435 337.635 845.748 328.473C841.131 319.311 838.787 308.338 838.716 295.554V191.364H884.1V287.457C884.171 297.116 886.763 304.751 891.877 310.362C896.99 315.973 903.844 318.778 912.438 318.778C917.907 318.778 923.02 317.536 927.779 315.05C932.537 312.493 936.373 308.729 939.284 303.757C942.267 298.786 943.723 292.642 943.652 285.327ZM1099.91 358.196C1083.08 358.196 1068.59 354.787 1056.45 347.969C1044.37 341.08 1035.07 331.349 1028.53 318.778C1022 306.136 1018.73 291.186 1018.73 273.928C1018.73 257.095 1022 242.322 1028.53 229.609C1035.07 216.896 1044.26 206.989 1056.13 199.886C1068.06 192.784 1082.05 189.233 1098.1 189.233C1108.9 189.233 1118.95 190.973 1128.25 194.453C1137.62 197.862 1145.79 203.011 1152.75 209.901C1159.78 216.79 1165.25 225.455 1169.16 235.895C1173.06 246.264 1175.02 258.409 1175.02 272.33V284.794H1036.84V256.669H1132.3C1132.3 250.135 1130.88 244.347 1128.04 239.304C1125.2 234.261 1121.25 230.32 1116.21 227.479C1111.24 224.567 1105.45 223.111 1098.85 223.111C1091.96 223.111 1085.85 224.709 1080.52 227.905C1075.27 231.03 1071.15 235.256 1068.16 240.582C1065.18 245.838 1063.65 251.697 1063.58 258.161V284.901C1063.58 292.997 1065.07 299.993 1068.06 305.888C1071.11 311.783 1075.41 316.328 1080.95 319.524C1086.49 322.72 1093.06 324.318 1100.66 324.318C1105.7 324.318 1110.32 323.608 1114.51 322.188C1118.7 320.767 1122.28 318.636 1125.27 315.795C1128.25 312.955 1130.52 309.474 1132.08 305.355L1174.06 308.125C1171.93 318.21 1167.56 327.017 1160.96 334.545C1154.42 342.003 1145.97 347.827 1135.6 352.017C1125.3 356.136 1113.41 358.196 1099.91 358.196ZM1205.49 355V136.818H1292.84C1308.9 136.818 1322.28 139.197 1333.01 143.956C1343.73 148.714 1351.79 155.32 1357.19 163.771C1362.59 172.152 1365.29 181.811 1365.29 192.749C1365.29 201.271 1363.58 208.764 1360.17 215.227C1356.76 221.619 1352.08 226.875 1346.11 230.994C1340.22 235.043 1333.47 237.919 1325.87 239.624V241.754C1334.18 242.109 1341.96 244.453 1349.2 248.786C1356.52 253.118 1362.45 259.19 1366.99 267.003C1371.54 274.744 1373.81 283.977 1373.81 294.702C1373.81 306.278 1370.93 316.612 1365.18 325.703C1359.5 334.723 1351.08 341.861 1339.93 347.116C1328.78 352.372 1315.04 355 1298.7 355H1205.49ZM1251.62 317.287H1289.22C1302.08 317.287 1311.45 314.837 1317.35 309.936C1323.24 304.964 1326.19 298.359 1326.19 290.121C1326.19 284.084 1324.73 278.757 1321.82 274.141C1318.91 269.524 1314.75 265.902 1309.36 263.274C1304.03 260.646 1297.67 259.332 1290.29 259.332H1251.62V317.287ZM1251.62 228.118H1285.81C1292.13 228.118 1297.75 227.017 1302.65 224.815C1307.62 222.543 1311.52 219.347 1314.36 215.227C1317.28 211.108 1318.73 206.172 1318.73 200.419C1318.73 192.536 1315.93 186.179 1310.32 181.349C1304.78 176.52 1296.89 174.105 1286.67 174.105H1251.62V228.118ZM1476.91 358.196C1460.36 358.196 1446.05 354.68 1433.98 347.649C1421.97 340.547 1412.7 330.675 1406.17 318.033C1399.64 305.32 1396.37 290.582 1396.37 273.821C1396.37 256.918 1399.64 242.145 1406.17 229.503C1412.7 216.79 1421.97 206.918 1433.98 199.886C1446.05 192.784 1460.36 189.233 1476.91 189.233C1493.46 189.233 1507.73 192.784 1519.74 199.886C1531.81 206.918 1541.11 216.79 1547.65 229.503C1554.18 242.145 1557.45 256.918 1557.45 273.821C1557.45 290.582 1554.18 305.32 1547.65 318.033C1541.11 330.675 1531.81 340.547 1519.74 347.649C1507.73 354.68 1493.46 358.196 1476.91 358.196ZM1477.12 323.04C1484.65 323.04 1490.94 320.909 1495.98 316.648C1501.02 312.315 1504.82 306.42 1507.38 298.963C1510.01 291.506 1511.32 283.018 1511.32 273.501C1511.32 263.984 1510.01 255.497 1507.38 248.04C1504.82 240.582 1501.02 234.687 1495.98 230.355C1490.94 226.023 1484.65 223.857 1477.12 223.857C1469.52 223.857 1463.13 226.023 1457.95 230.355C1452.83 234.687 1448.96 240.582 1446.33 248.04C1443.78 255.497 1442.5 263.984 1442.5 273.501C1442.5 283.018 1443.78 291.506 1446.33 298.963C1448.96 306.42 1452.83 312.315 1457.95 316.648C1463.13 320.909 1469.52 323.04 1477.12 323.04ZM1586.96 355V191.364H1630.96V219.915H1632.66C1635.64 209.759 1640.65 202.088 1647.68 196.903C1654.71 191.648 1662.81 189.02 1671.97 189.02C1674.25 189.02 1676.7 189.162 1679.32 189.446C1681.95 189.73 1684.26 190.121 1686.25 190.618V230.888C1684.12 230.249 1681.17 229.68 1677.41 229.183C1673.64 228.686 1670.2 228.438 1667.07 228.438C1660.4 228.438 1654.43 229.893 1649.17 232.805C1643.99 235.646 1639.87 239.624 1636.82 244.737C1633.83 249.851 1632.34 255.746 1632.34 262.422V355H1586.96ZM1762.39 357.663C1749.96 357.663 1738.71 354.467 1728.62 348.075C1718.61 341.612 1710.65 332.131 1704.76 319.631C1698.93 307.06 1696.02 291.648 1696.02 273.395C1696.02 254.645 1699.04 239.055 1705.08 226.626C1711.12 214.126 1719.14 204.787 1729.15 198.608C1739.24 192.358 1750.28 189.233 1762.29 189.233C1771.45 189.233 1779.08 190.795 1785.19 193.92C1791.37 196.974 1796.34 200.81 1800.11 205.426C1803.94 209.972 1806.85 214.446 1808.84 218.849H1810.23V136.818H1855.5V355H1810.76V328.793H1808.84C1806.71 333.338 1803.69 337.848 1799.79 342.322C1795.95 346.726 1790.94 350.384 1784.77 353.295C1778.66 356.207 1771.2 357.663 1762.39 357.663ZM1776.78 321.548C1784.09 321.548 1790.27 319.56 1795.31 315.582C1800.43 311.534 1804.33 305.888 1807.03 298.643C1809.8 291.399 1811.19 282.912 1811.19 273.182C1811.19 263.452 1809.84 255 1807.14 247.827C1804.44 240.653 1800.53 235.114 1795.42 231.207C1790.31 227.301 1784.09 225.348 1776.78 225.348C1769.32 225.348 1763.03 227.372 1757.92 231.42C1752.81 235.469 1748.93 241.08 1746.31 248.253C1743.68 255.426 1742.37 263.736 1742.37 273.182C1742.37 282.699 1743.68 291.115 1746.31 298.43C1749.01 305.675 1752.88 311.357 1757.92 315.476C1763.03 319.524 1769.32 321.548 1776.78 321.548ZM1967.39 358.196C1950.56 358.196 1936.07 354.787 1923.93 347.969C1911.85 341.08 1902.55 331.349 1896.01 318.778C1889.48 306.136 1886.21 291.186 1886.21 273.928C1886.21 257.095 1889.48 242.322 1896.01 229.609C1902.55 216.896 1911.75 206.989 1923.61 199.886C1935.54 192.784 1949.53 189.233 1965.58 189.233C1976.38 189.233 1986.43 190.973 1995.73 194.453C2005.1 197.862 2013.27 203.011 2020.23 209.901C2027.26 216.79 2032.73 225.455 2036.64 235.895C2040.55 246.264 2042.5 258.409 2042.5 272.33V284.794H1904.32V256.669H1999.78C1999.78 250.135 1998.36 244.347 1995.52 239.304C1992.68 234.261 1988.73 230.32 1983.69 227.479C1978.72 224.567 1972.93 223.111 1966.33 223.111C1959.44 223.111 1953.33 224.709 1948 227.905C1942.75 231.03 1938.63 235.256 1935.64 240.582C1932.66 245.838 1931.13 251.697 1931.06 258.161V284.901C1931.06 292.997 1932.56 299.993 1935.54 305.888C1938.59 311.783 1942.89 316.328 1948.43 319.524C1953.97 322.72 1960.54 324.318 1968.14 324.318C1973.18 324.318 1977.8 323.608 1981.99 322.188C1986.18 320.767 1989.76 318.636 1992.75 315.795C1995.73 312.955 1998 309.474 1999.56 305.355L2041.54 308.125C2039.41 318.21 2035.04 327.017 2028.44 334.545C2021.9 342.003 2013.45 347.827 2003.08 352.017C1992.78 356.136 1980.89 358.196 1967.39 358.196ZM2072.11 355V191.364H2116.11V219.915H2117.82C2120.8 209.759 2125.81 202.088 2132.84 196.903C2139.87 191.648 2147.97 189.02 2157.13 189.02C2159.4 189.02 2161.85 189.162 2164.48 189.446C2167.11 189.73 2169.42 190.121 2171.4 190.618V230.888C2169.27 230.249 2166.33 229.68 2162.56 229.183C2158.8 228.686 2155.35 228.438 2152.23 228.438C2145.55 228.438 2139.59 229.893 2134.33 232.805C2129.15 235.646 2125.03 239.624 2121.97 244.737C2118.99 249.851 2117.5 255.746 2117.5 262.422V355H2072.11Z" fill="black" fill-opacity="0.8"/>
</g>
<defs>
<clipPath id="clip0_62_14">
<rect width="2285" height="500" fill="white"/>
</clipPath>
</defs>
</svg>
