<svg width="205" height="48" viewBox="0 0 205 48" fill="none" xmlns="http://www.w3.org/2000/svg">
<g clip-path="url(#clip0_8_96)">
<path d="M79.7347 14.8182V33H76.805L68.2379 20.6154H68.087V33H64.7933V14.8182H67.7408L76.299 27.2116H76.4588V14.8182H79.7347ZM91.873 27.2649V19.3636H95.0867V33H91.9706V30.5763H91.8286C91.5208 31.3398 91.0148 31.9643 90.3105 32.4496C89.6121 32.9349 88.7509 33.1776 87.727 33.1776C86.8333 33.1776 86.0432 32.9793 85.3566 32.5827C84.676 32.1803 84.1433 31.5973 83.7586 30.8338C83.3739 30.0644 83.1816 29.1352 83.1816 28.0462V19.3636H86.3953V27.549C86.3953 28.4131 86.6321 29.0997 87.1056 29.6087C87.579 30.1177 88.2005 30.3722 88.9699 30.3722C89.4434 30.3722 89.9021 30.2567 90.346 30.0259C90.7899 29.7951 91.1539 29.4518 91.4379 28.9961C91.728 28.5344 91.873 27.9574 91.873 27.2649ZM104.428 33.2663C103.061 33.2663 101.881 32.9822 100.886 32.4141C99.8978 31.84 99.1373 31.0291 98.6046 29.9815C98.0719 28.928 97.8056 27.6881 97.8056 26.2617C97.8056 24.859 98.0719 23.628 98.6046 22.5685C99.1432 21.5032 99.8948 20.6746 100.86 20.0827C101.824 19.485 102.958 19.1861 104.26 19.1861C105.1 19.1861 105.893 19.3222 106.639 19.5945C107.391 19.8608 108.054 20.2751 108.628 20.8374C109.208 21.3996 109.663 22.1158 109.995 22.9858C110.326 23.8499 110.492 24.8797 110.492 26.0753V27.0607H99.3148V24.8945H107.411C107.405 24.279 107.272 23.7315 107.012 23.2521C106.751 22.7668 106.387 22.3851 105.92 22.1069C105.458 21.8287 104.92 21.6896 104.304 21.6896C103.647 21.6896 103.07 21.8494 102.573 22.169C102.076 22.4827 101.688 22.897 101.41 23.4119C101.138 23.9209 100.999 24.4802 100.993 25.0898V26.9808C100.993 27.7739 101.138 28.4545 101.428 29.0227C101.718 29.585 102.123 30.017 102.644 30.3189C103.165 30.6148 103.774 30.7628 104.473 30.7628C104.94 30.7628 105.364 30.6977 105.742 30.5675C106.121 30.4313 106.45 30.2331 106.728 29.9727C107.006 29.7122 107.216 29.3897 107.358 29.005L110.359 29.3423C110.169 30.1354 109.808 30.8279 109.276 31.4197C108.749 32.0057 108.074 32.4614 107.252 32.7869C106.429 33.1065 105.488 33.2663 104.428 33.2663ZM113.353 33V14.8182H120.313C121.627 14.8182 122.719 15.0253 123.589 15.4396C124.465 15.848 125.119 16.4073 125.551 17.1175C125.989 17.8278 126.208 18.6327 126.208 19.5323C126.208 20.2721 126.066 20.9054 125.782 21.4322C125.498 21.953 125.116 22.3762 124.637 22.7017C124.157 23.0272 123.622 23.261 123.03 23.4031V23.5806C123.675 23.6161 124.293 23.8144 124.885 24.1754C125.483 24.5305 125.971 25.0336 126.35 25.6847C126.729 26.3357 126.918 27.1229 126.918 28.0462C126.918 28.9872 126.69 29.8336 126.235 30.5852C125.779 31.331 125.092 31.9199 124.175 32.3519C123.258 32.784 122.103 33 120.713 33H113.353ZM116.647 30.2479H120.189C121.384 30.2479 122.246 30.02 122.772 29.5643C123.305 29.1026 123.571 28.5108 123.571 27.7887C123.571 27.2501 123.438 26.7648 123.172 26.3327C122.905 25.8948 122.527 25.5515 122.035 25.3029C121.544 25.0484 120.958 24.9212 120.278 24.9212H116.647V30.2479ZM116.647 22.5508H119.905C120.473 22.5508 120.985 22.4472 121.441 22.2401C121.896 22.027 122.254 21.7281 122.515 21.3434C122.781 20.9528 122.914 20.4911 122.914 19.9585C122.914 19.2541 122.666 18.6741 122.169 18.2184C121.677 17.7627 120.946 17.5348 119.976 17.5348H116.647V22.5508ZM135.59 33.2663C134.258 33.2663 133.104 32.9734 132.127 32.3874C131.151 31.8015 130.393 30.9818 129.855 29.9283C129.322 28.8748 129.056 27.6437 129.056 26.2351C129.056 24.8265 129.322 23.5924 129.855 22.533C130.393 21.4736 131.151 20.6509 132.127 20.065C133.104 19.479 134.258 19.1861 135.59 19.1861C136.921 19.1861 138.075 19.479 139.052 20.065C140.029 20.6509 140.783 21.4736 141.316 22.533C141.854 23.5924 142.124 24.8265 142.124 26.2351C142.124 27.6437 141.854 28.8748 141.316 29.9283C140.783 30.9818 140.029 31.8015 139.052 32.3874C138.075 32.9734 136.921 33.2663 135.59 33.2663ZM135.607 30.6918C136.329 30.6918 136.933 30.4935 137.419 30.0969C137.904 29.6945 138.265 29.1559 138.502 28.4812C138.744 27.8065 138.866 27.0548 138.866 26.2262C138.866 25.3917 138.744 24.6371 138.502 23.9624C138.265 23.2817 137.904 22.7402 137.419 22.3377C136.933 21.9353 136.329 21.734 135.607 21.734C134.868 21.734 134.252 21.9353 133.761 22.3377C133.276 22.7402 132.912 23.2817 132.669 23.9624C132.432 24.6371 132.314 25.3917 132.314 26.2262C132.314 27.0548 132.432 27.8065 132.669 28.4812C132.912 29.1559 133.276 29.6945 133.761 30.0969C134.252 30.4935 134.868 30.6918 135.607 30.6918ZM144.851 33V19.3636H147.968V21.6364H148.11C148.358 20.8492 148.784 20.2425 149.388 19.8164C149.998 19.3844 150.693 19.1683 151.474 19.1683C151.652 19.1683 151.85 19.1772 152.069 19.195C152.294 19.2068 152.48 19.2275 152.628 19.2571V22.2134C152.492 22.1661 152.276 22.1246 151.98 22.0891C151.69 22.0477 151.409 22.027 151.137 22.027C150.551 22.027 150.024 22.1542 149.557 22.4087C149.095 22.6573 148.731 23.0036 148.465 23.4474C148.198 23.8913 148.065 24.4033 148.065 24.9833V33H144.851ZM159.262 33.2397C158.191 33.2397 157.232 32.9645 156.386 32.4141C155.54 31.8636 154.871 31.0646 154.38 30.017C153.888 28.9695 153.643 27.697 153.643 26.1996C153.643 24.6844 153.891 23.406 154.388 22.3643C154.892 21.3168 155.569 20.5266 156.422 19.994C157.274 19.4554 158.224 19.1861 159.271 19.1861C160.07 19.1861 160.727 19.3222 161.242 19.5945C161.757 19.8608 162.165 20.1834 162.467 20.5621C162.769 20.935 163.003 21.2872 163.169 21.6186H163.302V14.8182H166.525V33H163.364V30.8516H163.169C163.003 31.183 162.763 31.5352 162.45 31.908C162.136 32.275 161.722 32.5887 161.207 32.8491C160.692 33.1095 160.044 33.2397 159.262 33.2397ZM160.159 30.603C160.84 30.603 161.42 30.4195 161.899 30.0526C162.379 29.6797 162.743 29.1618 162.991 28.4989C163.24 27.8361 163.364 27.0637 163.364 26.1818C163.364 25.3 163.24 24.5335 162.991 23.8825C162.748 23.2314 162.387 22.7254 161.908 22.3643C161.435 22.0033 160.852 21.8228 160.159 21.8228C159.443 21.8228 158.845 22.0092 158.366 22.3821C157.886 22.755 157.525 23.2699 157.283 23.9268C157.04 24.5838 156.919 25.3355 156.919 26.1818C156.919 27.0341 157.04 27.7946 157.283 28.4634C157.531 29.1263 157.895 29.6501 158.375 30.0348C158.86 30.4136 159.455 30.603 160.159 30.603ZM175.986 33.2663C174.619 33.2663 173.438 32.9822 172.444 32.4141C171.455 31.84 170.695 31.0291 170.162 29.9815C169.63 28.928 169.363 27.6881 169.363 26.2617C169.363 24.859 169.63 23.628 170.162 22.5685C170.701 21.5032 171.452 20.6746 172.417 20.0827C173.382 19.485 174.515 19.1861 175.817 19.1861C176.658 19.1861 177.451 19.3222 178.197 19.5945C178.948 19.8608 179.611 20.2751 180.185 20.8374C180.765 21.3996 181.221 22.1158 181.552 22.9858C181.884 23.8499 182.05 24.8797 182.05 26.0753V27.0607H170.872V24.8945H178.969C178.963 24.279 178.83 23.7315 178.57 23.2521C178.309 22.7668 177.945 22.3851 177.478 22.1069C177.016 21.8287 176.477 21.6896 175.862 21.6896C175.205 21.6896 174.628 21.8494 174.131 22.169C173.633 22.4827 173.246 22.897 172.968 23.4119C172.695 23.9209 172.556 24.4802 172.55 25.0898V26.9808C172.55 27.7739 172.695 28.4545 172.985 29.0227C173.275 29.585 173.681 30.017 174.202 30.3189C174.722 30.6148 175.332 30.7628 176.03 30.7628C176.498 30.7628 176.921 30.6977 177.3 30.5675C177.679 30.4313 178.007 30.2331 178.285 29.9727C178.564 29.7122 178.774 29.3897 178.916 29.005L181.916 29.3423C181.727 30.1354 181.366 30.8279 180.833 31.4197C180.307 32.0057 179.632 32.4614 178.809 32.7869C177.987 33.1065 177.045 33.2663 175.986 33.2663ZM184.768 33V19.3636H187.885V21.6364H188.027C188.275 20.8492 188.701 20.2425 189.305 19.8164C189.915 19.3844 190.61 19.1683 191.391 19.1683C191.569 19.1683 191.767 19.1772 191.986 19.195C192.211 19.2068 192.397 19.2275 192.545 19.2571V22.2134C192.409 22.1661 192.193 22.1246 191.897 22.0891C191.607 22.0477 191.326 22.027 191.054 22.027C190.468 22.027 189.941 22.1542 189.474 22.4087C189.012 22.6573 188.648 23.0036 188.382 23.4474C188.115 23.8913 187.982 24.4033 187.982 24.9833V33H184.768Z" fill="black"/>
<rect x="11" y="9" width="32" height="32" rx="4" fill="url(#paint0_linear_8_96)"/>
<path d="M7 25H23C25.2091 25 27 26.7909 27 29V45H11C8.79086 45 7 43.2091 7 41V25Z" fill="url(#paint1_linear_8_96)"/>
<path d="M27 4H43C45.2091 4 47 5.79086 47 8V24H31C28.7909 24 27 22.2091 27 20V4Z" fill="url(#paint2_linear_8_96)"/>
</g>
<defs>
<linearGradient id="paint0_linear_8_96" x1="42.0303" y1="9.48485" x2="4.21212" y2="47.7879" gradientUnits="userSpaceOnUse">
<stop/>
<stop offset="0.9" stop-color="#051539"/>
</linearGradient>
<linearGradient id="paint1_linear_8_96" x1="26.3939" y1="25.303" x2="2.75758" y2="49.2424" gradientUnits="userSpaceOnUse">
<stop stop-color="#0582FF"/>
<stop offset="0.273911" stop-color="#4491DF"/>
<stop offset="0.9" stop-color="#0582FF" stop-opacity="0.5"/>
<stop offset="1" stop-color="#0582FF" stop-opacity="0"/>
</linearGradient>
<linearGradient id="paint2_linear_8_96" x1="46.3939" y1="4.30303" x2="22.7576" y2="28.2424" gradientUnits="userSpaceOnUse">
<stop stop-color="#0582FF"/>
<stop offset="0.273911" stop-color="#4491DF"/>
<stop offset="0.9" stop-color="#0582FF" stop-opacity="0.5"/>
<stop offset="1" stop-color="#0582FF" stop-opacity="0"/>
</linearGradient>
<clipPath id="clip0_8_96">
<rect width="205" height="48" fill="white"/>
</clipPath>
</defs>
</svg>
