<svg width="1596" height="363" viewBox="0 0 1596 363" fill="none" xmlns="http://www.w3.org/2000/svg">
<g clip-path="url(#clip0_115_26)">
<path d="M186.884 55.3965L334.738 191.563" stroke="#080000" stroke-width="30" stroke-linecap="round"/>
<path d="M80.8643 170.514L228.718 306.68" stroke="#080000" stroke-width="30" stroke-linecap="round"/>
<path d="M80.8667 170.516L334.398 191.929" stroke="#080000" stroke-width="30" stroke-linecap="round"/>
<ellipse cx="212.636" cy="279.578" rx="61.5" ry="62.5" transform="rotate(132.644 212.636 279.578)" fill="#B0B0B0"/>
<ellipse cx="203.636" cy="76.5784" rx="61.5" ry="62.5" transform="rotate(132.644 203.636 76.5784)" fill="#4D6EFF"/>
<path d="M568.102 129.636V246H549.352L494.523 166.739H493.557V246H472.477V129.636H491.341L546.114 208.955H547.136V129.636H568.102ZM645.787 209.295V158.727H666.355V246H646.412V230.489H645.503C643.533 235.375 640.295 239.371 635.787 242.477C631.317 245.583 625.806 247.136 619.253 247.136C613.533 247.136 608.476 245.867 604.082 243.33C599.726 240.754 596.317 237.023 593.855 232.136C591.393 227.212 590.162 221.265 590.162 214.295V158.727H610.73V211.114C610.73 216.644 612.245 221.038 615.276 224.295C618.306 227.553 622.283 229.182 627.207 229.182C630.238 229.182 633.173 228.443 636.014 226.966C638.855 225.489 641.185 223.292 643.003 220.375C644.859 217.42 645.787 213.727 645.787 209.295ZM726.142 247.705C717.392 247.705 709.835 245.886 703.472 242.25C697.146 238.576 692.278 233.386 688.869 226.682C685.46 219.939 683.756 212.004 683.756 202.875C683.756 193.898 685.46 186.019 688.869 179.239C692.316 172.42 697.127 167.117 703.301 163.33C709.475 159.504 716.729 157.591 725.062 157.591C730.441 157.591 735.517 158.462 740.29 160.205C745.1 161.909 749.343 164.561 753.017 168.159C756.729 171.758 759.646 176.341 761.767 181.909C763.888 187.439 764.949 194.03 764.949 201.682V207.989H693.415V194.125H745.233C745.195 190.186 744.343 186.682 742.676 183.614C741.009 180.508 738.68 178.064 735.688 176.284C732.733 174.504 729.286 173.614 725.347 173.614C721.142 173.614 717.449 174.636 714.267 176.682C711.085 178.689 708.604 181.341 706.824 184.636C705.081 187.894 704.191 191.473 704.153 195.375V207.477C704.153 212.553 705.081 216.909 706.938 220.545C708.794 224.144 711.388 226.909 714.722 228.841C718.055 230.735 721.956 231.682 726.426 231.682C729.419 231.682 732.127 231.265 734.551 230.432C736.975 229.561 739.078 228.292 740.858 226.625C742.638 224.958 743.983 222.894 744.892 220.432L764.097 222.591C762.884 227.667 760.574 232.098 757.165 235.886C753.794 239.636 749.475 242.553 744.21 244.636C738.945 246.682 732.922 247.705 726.142 247.705ZM783.259 246V129.636H827.804C836.213 129.636 843.202 130.962 848.77 133.614C854.376 136.227 858.562 139.807 861.327 144.352C864.13 148.898 865.531 154.049 865.531 159.807C865.531 164.542 864.622 168.595 862.804 171.966C860.986 175.299 858.543 178.008 855.474 180.091C852.406 182.174 848.978 183.67 845.19 184.58V185.716C849.319 185.943 853.277 187.212 857.065 189.523C860.891 191.795 864.016 195.015 866.44 199.182C868.865 203.348 870.077 208.386 870.077 214.295C870.077 220.318 868.618 225.735 865.702 230.545C862.785 235.318 858.391 239.087 852.52 241.852C846.649 244.617 839.262 246 830.361 246H783.259ZM804.338 228.386H827.009C834.66 228.386 840.171 226.928 843.543 224.011C846.952 221.057 848.656 217.269 848.656 212.648C848.656 209.201 847.804 206.095 846.099 203.33C844.395 200.527 841.971 198.33 838.827 196.739C835.683 195.11 831.933 194.295 827.577 194.295H804.338V228.386ZM804.338 179.125H825.19C828.827 179.125 832.103 178.462 835.02 177.136C837.937 175.773 840.228 173.86 841.895 171.398C843.599 168.898 844.452 165.943 844.452 162.534C844.452 158.027 842.861 154.314 839.679 151.398C836.535 148.481 831.857 147.023 825.645 147.023H804.338V179.125ZM925.574 247.705C917.051 247.705 909.665 245.83 903.415 242.08C897.165 238.33 892.316 233.083 888.869 226.341C885.46 219.598 883.756 211.72 883.756 202.705C883.756 193.689 885.46 185.792 888.869 179.011C892.316 172.231 897.165 166.966 903.415 163.216C909.665 159.466 917.051 157.591 925.574 157.591C934.097 157.591 941.483 159.466 947.733 163.216C953.983 166.966 958.813 172.231 962.222 179.011C965.669 185.792 967.392 193.689 967.392 202.705C967.392 211.72 965.669 219.598 962.222 226.341C958.813 233.083 953.983 238.33 947.733 242.08C941.483 245.83 934.097 247.705 925.574 247.705ZM925.688 231.227C930.309 231.227 934.172 229.958 937.278 227.42C940.384 224.845 942.695 221.398 944.21 217.08C945.763 212.761 946.54 207.951 946.54 202.648C946.54 197.307 945.763 192.477 944.21 188.159C942.695 183.803 940.384 180.337 937.278 177.761C934.172 175.186 930.309 173.898 925.688 173.898C920.953 173.898 917.013 175.186 913.869 177.761C910.763 180.337 908.434 183.803 906.881 188.159C905.366 192.477 904.608 197.307 904.608 202.648C904.608 207.951 905.366 212.761 906.881 217.08C908.434 221.398 910.763 224.845 913.869 227.42C917.013 229.958 920.953 231.227 925.688 231.227ZM984.849 246V158.727H1004.79V173.273H1005.7C1007.29 168.235 1010.02 164.352 1013.88 161.625C1017.79 158.86 1022.24 157.477 1027.24 157.477C1028.37 157.477 1029.64 157.534 1031.04 157.648C1032.48 157.723 1033.68 157.856 1034.62 158.045V176.966C1033.75 176.663 1032.37 176.398 1030.47 176.17C1028.62 175.905 1026.82 175.773 1025.08 175.773C1021.33 175.773 1017.96 176.587 1014.96 178.216C1012.01 179.807 1009.68 182.023 1007.97 184.864C1006.27 187.705 1005.42 190.981 1005.42 194.693V246H984.849ZM1077.08 247.534C1070.22 247.534 1064.09 245.773 1058.67 242.25C1053.25 238.727 1048.97 233.614 1045.83 226.909C1042.69 220.205 1041.11 212.061 1041.11 202.477C1041.11 192.78 1042.7 184.598 1045.89 177.932C1049.11 171.227 1053.44 166.17 1058.9 162.761C1064.35 159.314 1070.43 157.591 1077.14 157.591C1082.25 157.591 1086.45 158.462 1089.75 160.205C1093.05 161.909 1095.66 163.973 1097.59 166.398C1099.52 168.784 1101.02 171.038 1102.08 173.159H1102.93V129.636H1123.56V246H1103.33V232.25H1102.08C1101.02 234.371 1099.48 236.625 1097.48 239.011C1095.47 241.36 1092.82 243.367 1089.52 245.034C1086.23 246.701 1082.08 247.534 1077.08 247.534ZM1082.82 230.659C1087.17 230.659 1090.89 229.485 1093.95 227.136C1097.02 224.75 1099.35 221.436 1100.94 217.193C1102.53 212.951 1103.33 208.008 1103.33 202.364C1103.33 196.72 1102.53 191.814 1100.94 187.648C1099.39 183.481 1097.08 180.242 1094.01 177.932C1090.98 175.621 1087.25 174.466 1082.82 174.466C1078.23 174.466 1074.41 175.659 1071.34 178.045C1068.27 180.432 1065.96 183.727 1064.41 187.932C1062.86 192.136 1062.08 196.947 1062.08 202.364C1062.08 207.818 1062.86 212.686 1064.41 216.966C1066 221.208 1068.33 224.561 1071.4 227.023C1074.5 229.447 1078.31 230.659 1082.82 230.659ZM1184.11 247.705C1175.36 247.705 1167.8 245.886 1161.44 242.25C1155.11 238.576 1150.25 233.386 1146.84 226.682C1143.43 219.939 1141.72 212.004 1141.72 202.875C1141.72 193.898 1143.43 186.019 1146.84 179.239C1150.29 172.42 1155.1 167.117 1161.27 163.33C1167.44 159.504 1174.7 157.591 1183.03 157.591C1188.41 157.591 1193.49 158.462 1198.26 160.205C1203.07 161.909 1207.31 164.561 1210.99 168.159C1214.7 171.758 1217.61 176.341 1219.74 181.909C1221.86 187.439 1222.92 194.03 1222.92 201.682V207.989H1151.38V194.125H1203.2C1203.16 190.186 1202.31 186.682 1200.64 183.614C1198.98 180.508 1196.65 178.064 1193.66 176.284C1190.7 174.504 1187.25 173.614 1183.32 173.614C1179.11 173.614 1175.42 174.636 1172.24 176.682C1169.05 178.689 1166.57 181.341 1164.79 184.636C1163.05 187.894 1162.16 191.473 1162.12 195.375V207.477C1162.12 212.553 1163.05 216.909 1164.91 220.545C1166.76 224.144 1169.36 226.909 1172.69 228.841C1176.02 230.735 1179.93 231.682 1184.39 231.682C1187.39 231.682 1190.1 231.265 1192.52 230.432C1194.94 229.561 1197.05 228.292 1198.83 226.625C1200.61 224.958 1201.95 222.894 1202.86 220.432L1222.07 222.591C1220.85 227.667 1218.54 232.098 1215.13 235.886C1211.76 239.636 1207.44 242.553 1202.18 244.636C1196.91 246.682 1190.89 247.705 1184.11 247.705ZM1240.32 246V158.727H1260.26V173.273H1261.17C1262.76 168.235 1265.49 164.352 1269.35 161.625C1273.25 158.86 1277.7 157.477 1282.7 157.477C1283.84 157.477 1285.11 157.534 1286.51 157.648C1287.95 157.723 1289.14 157.856 1290.09 158.045V176.966C1289.22 176.663 1287.84 176.398 1285.94 176.17C1284.09 175.905 1282.29 175.773 1280.55 175.773C1276.8 175.773 1273.42 176.587 1270.43 178.216C1267.48 179.807 1265.15 182.023 1263.44 184.864C1261.74 187.705 1260.89 190.981 1260.89 194.693V246H1240.32Z" fill="black"/>
</g>
<defs>
<clipPath id="clip0_115_26">
<rect width="1596" height="363" fill="white"/>
</clipPath>
</defs>
</svg>
